<?xml version="1.0" encoding="UTF-8"?>
<svg width="325px" height="40px" viewBox="0 0 325 40" version="1.1" xmlns="http://www.w3.org/2000/svg" xmlns:xlink="http://www.w3.org/1999/xlink">
    <!-- Generator: Sketch 54 (76480) - https://sketchapp.com -->
    <title>Fill 1</title>
    <desc>Created with Sketch.</desc>
    <g id="Page-1" stroke="none" stroke-width="1" fill="none" fill-rule="evenodd">
        <path d="M28,29.6921387 L24.5451331,26.264893 C23.2319378,27.4654424 21.9039063,28.4142224 20.5610333,29.1136847 C19.220632,29.8131471 17.6156197,30.1616796 15.7484572,30.1616796 C14.2918224,30.1616796 12.9415285,29.8833767 11.7025247,29.3266617 C10.4635208,28.7700012 9.39021328,28.0075557 8.48754561,27.0370366 C7.58240619,26.0664631 6.88252783,24.9312942 6.3879161,23.6315844 C5.89083261,22.3342719 5.64352396,20.9401417 5.64352396,19.4564402 C5.64352396,17.9727388 5.89083261,16.5883067 6.3879161,15.3030896 C6.88252783,14.0203242 7.58240619,12.8997024 8.48754561,11.9436216 C9.39021328,10.985198 10.4635208,10.2299988 11.7025247,9.67333829 C12.9415285,9.11667783 14.2918224,8.83832035 15.7484572,8.83832035 C17.4993807,8.83832035 19.0598847,9.17960656 20.4299637,9.86697353 C21.8025089,10.5519432 23.1008682,11.4498899 24.3250304,12.5632653 L27.7823746,8.66647861 C27.0528186,7.98150892 26.2787487,7.35222162 25.4626424,6.78341128 C24.6465305,6.21220366 23.7562272,5.72086921 22.7942097,5.30461337 C21.8321866,4.89070033 20.7737151,4.57120762 19.6212671,4.3412862 C18.4688246,4.11376207 17.1927222,4 15.792971,4 C13.4608745,4 11.3315673,4.40661222 9.40505492,5.21989114 C7.48100876,6.03311557 5.81911288,7.14649098 4.41936173,8.55996288 C3.01713492,9.97348926 1.93146086,11.6217316 1.15739269,13.504799 C0.385797933,15.3902091 0,17.4015312 0,19.5435598 C0,21.7122309 0.393217081,23.7380457 1.17965069,25.6235103 C1.96855716,27.5065776 3.05423122,29.1427246 4.43914686,30.5271566 C5.82406195,31.9116432 7.46617269,33.0032251 9.3630129,33.8019024 C11.2573758,34.6006341 13.3297993,35 15.5753401,35 C17.0047689,35 18.310549,34.8789916 19.4901975,34.6369748 C20.6723233,34.3949035 21.7579951,34.0367273 22.7496903,33.5671319 C23.7413911,33.0951937 24.6687874,32.5384787 25.5269413,31.897096 C26.387567,31.2557133 27.2135658,30.517513 28,29.6921387 Z M51.4988033,4 L46.5012023,4 L33,34 L38.5253586,34 L41.6795224,26.8079054 L56.1891656,26.8079054 L59.3012079,34 L65,34 L51.4988033,4 Z M54,22 L44,22 L48.9788884,10 L54,22 Z M72,34 L93,34 L93,29.2422379 L77.2299874,29.2422379 L77.2299874,4 L72,4 L72,34 Z M125.6808,12.48597 L125.6808,34 L131,34 L131,4 L125.288903,4 L116.001248,18.1860359 L106.711152,4 L101,4 L101,34 L106.3192,34 L106.3192,12.5707664 L115.868138,26.6283807 L116.04314,26.6283807 L125.6808,12.48597 Z M155.474732,0 L136,40 L140.522856,40 L160,0 L155.474732,0 Z M169.332799,12.3109936 C169.332799,11.3058864 169.758192,10.4516521 170.608977,9.74834546 C171.459763,9.04498407 172.649435,8.694536 174.180374,8.694536 C175.540625,8.694536 176.886539,8.95979621 178.220389,9.49037141 C179.551805,10.0208918 180.897719,10.7899383 182.25797,11.7925802 L185.065088,7.78924376 C183.534149,6.55536195 181.897498,5.61593979 180.152646,4.9686216 C178.410228,4.32365909 176.446702,4 174.266881,4 C172.791233,4 171.430928,4.20932657 170.190834,4.62545969 C168.943491,5.04159281 167.881226,5.6354426 166.994355,6.41177521 C166.109918,7.18569735 165.415375,8.11290286 164.903475,9.18857081 C164.401151,10.2642388 164.146391,11.4640454 164.146391,12.7831151 C164.146391,14.1897283 164.36512,15.3822488 164.804904,16.3556914 C165.244742,17.3340644 165.888863,18.1639201 166.725204,18.8550649 C167.561545,19.5437992 168.604605,20.1181461 169.837503,20.5756953 C171.077651,21.035655 172.485997,21.4517881 174.081802,21.8241495 C175.470943,22.1697219 176.598129,22.4982567 177.468121,22.8146844 C178.333351,23.1310573 179.013504,23.4692887 179.515774,23.8270777 C180.013283,24.184812 180.352115,24.5814971 180.537193,25.0122573 C180.722271,25.4430175 180.813593,25.9297662 180.813593,26.4749137 C180.813593,27.6528071 180.340105,28.5848883 179.388421,29.2736226 C178.439064,29.9623569 177.158124,30.3079292 175.540625,30.3079292 C173.670854,30.3079292 171.998118,29.969643 170.524905,29.2954811 C169.049203,28.6213739 167.590381,27.6528071 166.143569,26.3897259 L163,30.1765044 C164.785698,31.8143574 166.725204,33.026326 168.823333,33.8148204 C170.921408,34.6057802 173.118109,35 175.413272,35 C176.973046,35 178.403033,34.7980144 179.708047,34.3964536 C181.005866,33.9948928 182.125803,33.4059735 183.04627,32.6320513 C183.973987,31.8557187 184.697366,30.9090104 185.22133,29.7895159 C185.738045,28.6700762 186,27.3948331 186,25.9589656 C186,24.6958844 185.795716,23.5983031 185.384714,22.6637567 C184.973766,21.7316755 184.363295,20.9139816 183.570234,20.2106202 C182.77712,19.5073136 181.770091,18.9110533 180.566029,18.4243047 C179.361966,17.9351455 177.972825,17.489813 176.413051,17.0882522 C174.987879,16.7450903 173.819847,16.414145 172.88975,16.0977721 C171.969283,15.7838096 171.245904,15.4382373 170.714744,15.0658759 C170.190834,14.6911041 169.830308,14.2895433 169.630839,13.8587831 C169.43375,13.4304333 169.332799,12.9120747 169.332799,12.3109936 Z M207.227917,8.88612919 L217,8.88612919 L217,4 L192,4 L192,8.88612919 L201.769619,8.88612919 L201.769619,34 L207.227917,34 L207.227917,8.88612919 Z M253,19.4564402 C253,17.3459033 252.607123,15.3466766 251.818812,13.4636092 C251.033058,11.5781446 249.938366,9.9371486 248.542244,8.53816938 C247.141172,7.13924464 245.465814,6.03311557 243.513669,5.21989114 C241.561523,4.40661222 239.404346,4 237.044472,4 C234.682151,4 232.52742,4.41391304 230.572827,5.24168464 C228.620682,6.06940175 226.930473,7.1900235 225.502255,8.60354988 C224.073982,10.0146245 222.966942,11.6628669 222.181133,13.5483315 C221.392877,15.4313988 221,17.4306255 221,19.5435598 C221,21.6565485 221.392877,23.6533234 222.181133,25.5363908 C222.966942,27.4218554 224.059131,29.0628514 225.457756,30.4618306 C226.856381,31.8608098 228.534186,32.9668844 230.486331,33.7801633 C232.438477,34.5933878 234.595654,35 236.955528,35 C239.315346,35 241.47258,34.5861414 243.427173,33.7583698 C245.379318,32.9305982 247.069472,31.8099765 248.497745,30.3964501 C249.926018,28.98543 251.033058,27.3347359 251.818812,25.4516685 C252.607123,23.5686557 253,21.569429 253,19.4564402 Z M247,19.044942 C247,20.5457635 246.754386,21.9691239 246.260689,23.3076033 C245.769408,24.6486122 245.087326,25.8097968 244.214444,26.7986335 C243.343924,27.7850531 242.294576,28.5641603 241.07107,29.138485 C239.847617,29.7128658 238.504928,30 237.042949,30 C235.578607,30 234.228724,29.7053333 232.990938,29.1159999 C231.753205,28.5291961 230.691885,27.7326067 229.804722,26.7312346 C228.919868,25.7298625 228.230646,24.558672 227.739365,23.2201926 C227.245668,21.8792399 227,20.4583528 227,18.955058 C227,17.4542365 227.245668,16.0333494 227.739365,14.6923967 C228.230646,13.351444 228.912728,12.1902594 229.78561,11.2038398 C230.65613,10.2150032 231.705478,9.43583965 232.92893,8.86151503 C234.152436,8.28719042 235.495125,8 236.957105,8 C238.421447,8 239.771329,8.2946667 241.0067,8.88400009 C242.246849,9.47333349 243.308169,10.2674496 244.192969,11.2687654 C245.080132,12.2701375 245.769408,13.441328 246.260689,14.7798074 C246.754386,16.1207601 247,17.5416472 247,19.044942 Z M288,34 L279.726728,22.6434387 C280.807892,22.3575847 281.79254,21.9506163 282.680728,21.422479 C283.571423,20.8919422 284.338368,20.2499977 284.979169,19.4917921 C285.62242,18.7359859 286.124658,17.863864 286.490837,16.8779349 C286.854511,15.8944053 287.037573,14.770348 287.037573,13.5155242 C287.037573,12.057189 286.775316,10.7369274 286.248351,9.5498863 C285.723837,8.36529908 284.974212,7.36481011 283.994465,6.55087332 C283.017224,5.73693653 281.822224,5.107098 280.407071,4.66375711 C278.991918,4.22047075 277.408517,4 275.656868,4 L262,4 L262,34 L267.341493,34 L267.341493,23.5421719 L274.103152,23.5421719 L281.654032,34 L288,34 Z M281,13.9772467 C281,15.5101797 280.439925,16.7341644 279.312431,17.6371234 C278.194639,18.5473074 276.677553,19 274.775646,19 L267,19 L267,9 L274.731792,9 C276.721353,9 278.265299,9.41678349 279.356285,10.2550952 C280.456974,11.0910346 281,12.3341062 281,13.9772467 Z M319.681242,12.48597 L319.681242,34 L325,34 L325,4 L319.289323,4 L310.002441,18.1860359 L300.713118,4 L295,4 L295,34 L300.321254,34 L300.321254,12.5707664 L309.869342,26.6283807 L310.044385,26.6283807 L319.681242,12.48597 L319.681242,12.48597 Z" id="Fill-1" fill="#23384D"></path>
    </g>
</svg>