<?xml version="1.0" encoding="iso-8859-1"?>
<!-- Generator: Adobe Illustrator 22.1.0, SVG Export Plug-In . SVG Version: 6.00 Build 0)  -->
<svg xmlns="http://www.w3.org/2000/svg" xmlns:xlink="http://www.w3.org/1999/xlink" version="1.1" id="Layer_1_1_" x="0px" y="0px" viewBox="0 0 64 64" style="enable-background:new 0 0 64 64;" xml:space="preserve" width="512" height="512">
<g>
	<path d="M32,51c-1.103,0-2-0.897-2-2h-2c0,1.859,1.279,3.411,3,3.858V55h2v-2.142c1.721-0.447,3-1.999,3-3.858c0-2.206-1.794-4-4-4   c-1.103,0-2-0.897-2-2s0.897-2,2-2s2,0.897,2,2h2c0-1.859-1.279-3.411-3-3.858V37h-2v2.142c-1.721,0.447-3,1.999-3,3.858   c0,2.206,1.794,4,4,4c1.103,0,2,0.897,2,2S33.103,51,32,51z"/>
	<path d="M61,45v-8h-2v8h-2v-4h-2v4h-2v-8h-2v8h-4v1c0,8.271-6.729,15-15,15c-7.2,0-13.397-5.125-14.736-12.187l-1.965,0.373   c0.985,5.197,4.3,9.456,8.732,11.813H5v2h54v-2H39.98c5.083-2.715,8.637-7.933,8.991-14H63v-2H61z"/>
	<path d="M17,46c0-8.271,6.729-15,15-15c7.2,0,13.397,5.125,14.736,12.187l1.965-0.373C47.246,35.14,40.727,29.498,33,29.044V25v-1   v-1h3c3.859,0,7-3.14,7-7v-1h-5c-1.958,0-3.728,0.81-5,2.111V11h5c4.963,0,9-4.038,9-9V1h-7c-3.193,0-5.996,1.676-7.594,4.19   C31.321,2.726,28.86,1,26,1h-5v1c0,3.86,3.141,7,7,7h3v1v1v7.356C29.349,16.312,26.826,15,24,15h-7v1c0,4.962,4.037,9,9,9h5v4.049   C22.423,29.551,15.529,36.422,15.029,45H1v2h16V46z M38,17h2.899c-0.465,2.279-2.484,4-4.899,4h-2.899   C33.565,18.721,35.585,17,38,17z M28,7c-2.415,0-4.435-1.721-4.899-4H26c2.415,0,4.435,1.721,4.899,4H28z M40,3h4.929   C44.442,6.388,41.521,9,38,9h-4.929C33.558,5.612,36.479,3,40,3z M26,23c-3.521,0-6.442-2.612-6.929-6H24   c3.521,0,6.442,2.612,6.929,6H26z"/>
	<rect x="61" y="61" width="2" height="2"/>
	<rect x="1" y="61" width="2" height="2"/>
	<rect x="3" y="49" width="10" height="2"/>
	<rect x="3" y="53" width="10" height="2"/>
	<path d="M45,46c0-7.168-5.832-13-13-13c-3.069,0-6.052,1.096-8.398,3.085l1.293,1.525C26.88,35.927,29.403,35,32,35   c6.065,0,11,4.935,11,11c0,2.597-0.927,5.12-2.61,7.105l1.525,1.293C43.904,52.052,45,49.069,45,46z"/>
	<path d="M22.085,37.602C20.096,39.948,19,42.931,19,46c0,7.168,5.832,13,13,13c3.069,0,6.052-1.096,8.398-3.085l-1.293-1.525   C37.12,56.073,34.597,57,32,57c-6.065,0-11-4.935-11-11c0-2.597,0.927-5.12,2.61-7.105L22.085,37.602z"/>
</g>
</svg>
